<?xml version="1.0" standalone="no"?>
<!DOCTYPE svg PUBLIC "-//W3C//DTD SVG 20010904//EN"
 "http://www.w3.org/TR/2001/REC-SVG-20010904/DTD/svg10.dtd">
<svg version="1.0" xmlns="http://www.w3.org/2000/svg"
 width="64" height="64" viewBox="0 0 128.000000 128.000000"
 preserveAspectRatio="xMidYMid meet">

<g transform="translate(0.000000,128.000000) scale(0.100000,-0.100000)"
fill="#000000" stroke="none">
<path d="M1480 600 c0 -393 2 -450 15 -450 13 0 15 57 15 450 0 393 -2 450
-15 450 -13 0 -15 -57 -15 -450z"/>
<path d="M433 969 c-61 -18 -63 -26 -63 -317 0 -169 4 -271 11 -284 20 -37 69
-48 214 -48 l136 0 -3 -32 c-3 -31 -6 -33 -45 -36 -42 -3 -56 -15 -30 -25 20
-8 321 -9 340 -1 30 11 18 23 -25 26 -40 3 -43 5 -46 36 l-3 32 138 0 c162 0
200 12 220 70 16 48 16 472 0 520 -8 24 -23 41 -47 52 -32 16 -71 18 -400 17
-201 0 -379 -5 -397 -10z m804 -42 c16 -16 18 -43 21 -242 l3 -225 -430 0
-431 0 0 223 c0 122 4 227 8 233 21 32 48 34 429 31 352 -2 384 -3 400 -20z
m20 -513 c2 -6 -5 -22 -16 -35 l-19 -24 -397 0 c-381 0 -397 1 -411 19 -8 11
-14 28 -14 38 0 17 20 18 427 16 299 -2 427 -6 430 -14z m-365 -125 c3 -16 2
-31 0 -34 -3 -3 -34 -5 -69 -5 l-63 0 0 34 c0 32 3 35 33 38 17 2 46 1 64 0
26 -3 32 -9 35 -33z"/>
<path d="M758 868 c-9 -7 -18 -24 -20 -38 -3 -24 -7 -25 -83 -30 l-80 -5 -3
-47 c-3 -38 0 -47 16 -52 14 -5 26 -29 41 -84 13 -42 28 -80 34 -84 21 -14
313 -9 325 5 5 6 19 44 31 82 11 39 30 78 41 87 20 18 26 52 14 82 -5 13 -22
16 -85 16 -76 0 -79 1 -79 23 0 37 -30 57 -86 57 -28 0 -57 -6 -66 -12z m120
-45 c3 -21 0 -23 -51 -23 -61 0 -67 3 -60 31 5 17 13 20 57 17 44 -3 51 -6 54
-25z m170 -75 c-3 -23 -3 -23 -225 -26 l-223 -2 0 25 0 25 226 0 225 0 -3 -22z
m-38 -55 c0 -3 -9 -37 -21 -75 l-20 -69 -147 3 -146 3 -18 55 c-29 93 -42 86
167 87 102 1 185 -1 185 -4z"/>
<path d="M716 672 c-7 -12 14 -102 25 -102 10 0 12 53 3 88 -6 22 -19 29 -28
14z"/>
<path d="M810 625 c0 -41 3 -56 13 -52 7 2 12 22 12 52 0 30 -5 50 -12 53 -10
3 -13 -12 -13 -53z"/>
<path d="M907 673 c-11 -19 -18 -91 -8 -97 14 -9 20 5 27 58 5 30 3 46 -4 46
-6 0 -13 -3 -15 -7z"/>
<path d="M790 395 c0 -13 8 -16 38 -13 20 2 37 8 37 13 0 6 -17 11 -37 13 -30
3 -38 0 -38 -13z"/>
<path d="M3000 660 l0 -220 45 0 45 0 0 91 c0 122 14 149 82 149 51 0 58 -18
58 -139 l0 -101 50 0 50 0 0 98 c0 119 -12 163 -51 196 -36 31 -111 36 -159
11 l-30 -16 0 76 0 75 -45 0 -45 0 0 -220z"/>
<path d="M1690 651 l0 -211 45 0 44 0 3 120 3 120 60 -97 c41 -66 67 -99 81
-101 17 -2 33 16 82 100 l62 103 0 -122 0 -123 45 0 45 0 0 210 0 210 -38 0
-38 0 -73 -125 c-41 -69 -76 -127 -80 -129 -3 -2 -40 53 -82 123 l-77 126 -41
3 -41 3 0 -210z"/>
<path d="M2674 846 c-48 -21 -74 -62 -74 -113 0 -62 34 -94 125 -118 39 -10
80 -24 93 -32 28 -17 28 -49 0 -64 -28 -15 -125 -6 -167 15 l-32 17 -14 -33
c-13 -30 -13 -34 6 -50 27 -23 123 -41 181 -35 91 11 143 57 143 127 0 71 -31
95 -176 134 -60 17 -76 35 -59 66 15 28 70 35 131 17 29 -9 56 -14 60 -11 4 2
12 18 18 34 9 28 8 32 -17 42 -42 18 -182 21 -218 4z"/>
<path d="M3968 760 c-20 -4 -44 -12 -52 -20 -13 -10 -16 -10 -16 4 0 12 -10
16 -45 16 l-45 0 0 -220 0 -220 45 0 45 0 0 75 0 75 26 -17 c34 -22 109 -22
151 0 49 26 76 72 81 136 7 115 -77 190 -190 171z m69 -94 c22 -19 28 -32 28
-66 0 -93 -111 -124 -153 -43 -46 86 52 172 125 109z"/>
<path d="M2242 688 c16 -40 48 -112 69 -161 30 -69 36 -94 28 -108 -12 -24
-51 -34 -78 -20 -18 10 -22 7 -36 -20 -9 -17 -15 -32 -13 -34 18 -15 55 -25
92 -25 76 0 101 33 195 253 l80 188 -47 -3 -46 -3 -40 -97 c-23 -53 -44 -99
-47 -103 -3 -3 -26 42 -49 100 l-43 105 -48 0 -48 0 31 -72z"/>
<path d="M3475 741 c-114 -70 -109 -227 9 -288 40 -21 132 -21 173 0 115 60
117 233 3 292 -42 22 -148 20 -185 -4z m150 -76 c54 -53 18 -155 -55 -155 -19
0 -40 9 -55 25 -54 53 -18 155 55 155 19 0 40 -9 55 -25z"/>
<path d="M4170 757 c0 -2 31 -75 69 -162 73 -169 75 -189 27 -201 -13 -3 -33
-1 -44 5 -17 9 -23 6 -37 -15 -22 -34 -14 -51 30 -60 51 -9 104 2 131 27 18
17 184 382 184 404 0 3 -19 5 -43 5 l-43 0 -43 -105 c-24 -58 -46 -103 -50
-101 -3 2 -24 50 -46 105 l-40 101 -47 0 c-27 0 -48 -1 -48 -3z"/>
</g>
</svg>
